<svg width="94" height="94" viewBox="0 0 94 94" fill="none" xmlns="http://www.w3.org/2000/svg">
<circle cx="47" cy="47" r="47" fill="white"/>
<g clip-path="url(#clip0)">
<path fill-rule="evenodd" clip-rule="evenodd" d="M64.336 14.1394L62.4418 17.1722C62.4418 17.1722 64.1789 20.015 64.1935 20.5108C64.2082 21.0065 64.2082 21.0065 64.2082 21.0065C64.2082 21.0065 50.8373 24.4615 45.2855 29.5872C39.7336 34.7129 31.5883 47.7595 27.8766 45.2233C24.1649 42.687 26.841 36.8102 27.0445 36.3435C27.2482 35.8768 27.3297 35.7219 27.4417 35.5614C27.2481 35.583 24.8031 39.1124 24.6627 42.7548C24.5224 46.3974 26.6919 49.8891 29.3225 49.3977C31.953 48.9064 33.9873 47.1234 36.6497 42.8137C39.6171 38.0103 45.8248 29.9846 54.7994 27.0731C63.7739 24.1615 64.3593 23.3173 64.3593 23.3173C64.3593 23.3173 66.8365 20.4326 67.0622 19.6817C67.2879 18.9307 65.5312 15.427 64.3361 14.1394H64.336Z" fill="#010101"/>
<path fill-rule="evenodd" clip-rule="evenodd" d="M41.5063 22.5757L38.5174 25.5777C38.5174 25.5777 39.2736 31.5919 36.6529 32.4135C34.0323 33.2352 33.2328 31.357 33.3975 28.5406C33.5622 25.7243 33.6229 24.9784 33.6229 24.9784L31.6776 26.2761C31.6776 26.2761 31.8114 28.0086 31.2576 28.852C30.7038 29.6953 27.292 34.5095 28.242 35.8872C29.1919 37.2649 30.7415 36.5576 32.1088 35.2768C33.476 33.9961 33.2453 34.0855 33.2453 34.0855C36.4506 36.6088 42.4549 29.9509 41.5063 22.5759V22.5757ZM31.8409 30.9783C31.8452 31.6464 31.8823 32.6902 32.6098 33.3542C32.0231 33.8864 29.986 34.7076 30.3168 33.6831C30.6476 32.6586 31.3417 31.5904 31.8409 30.9783V30.9783Z" fill="#010101"/>
<path fill-rule="evenodd" clip-rule="evenodd" d="M38.3004 33.5875C38.3004 33.5875 39.492 34.7786 39.6088 34.9553C39.5223 35.1264 38.5378 36.286 38.4344 36.4405C38.2798 36.3352 37.2711 35.3041 37.1358 35.101C37.1883 34.91 38.3004 33.5877 38.3004 33.5877V33.5875Z" fill="#4DC8C6"/>
<path fill-rule="evenodd" clip-rule="evenodd" d="M28.6136 28.2134L29.6998 29.7762L28.4601 31.0438L27.416 29.6185L28.6136 28.2134Z" fill="#4DC8C6"/>
<path fill-rule="evenodd" clip-rule="evenodd" d="M44.2292 17.4498C44.2056 18.138 44.1329 18.9971 44.0201 19.7682C40.7171 21.6143 37.4514 23.3089 34.1096 25.3369C34.0778 24.4313 34.1252 23.5933 34.2654 22.6937C37.4845 20.7859 40.7895 19.0002 44.2293 17.4498H44.2292Z" fill="#F5BA16"/>
<path fill-rule="evenodd" clip-rule="evenodd" d="M50.0489 15.9569C49.8542 16.851 49.5902 17.7324 49.3955 18.6263C50.0963 18.3688 59.1999 15.7034 61.2043 15.6716C61.5621 14.9211 62.208 13.2558 62.2374 13.16C57.9597 13.5469 54.5917 14.255 50.0488 15.9568L50.0489 15.9569Z" fill="#F5BA16"/>
<path fill-rule="evenodd" clip-rule="evenodd" d="M29.2129 25.7642C28.6067 26.5338 27.4661 27.1147 25.9949 27.3665C25.9949 27.3665 26.5348 28.6124 27.7732 27.9468C29.0088 27.2828 29.4277 26.5726 30.1534 25.8009L30.6875 25.8453L31.2192 24.8565C31.2192 24.8565 30.6074 24.8039 30.512 24.7033C30.7351 24.0663 31.0516 22.211 29.9861 22.0559C28.7697 21.879 28.0654 22.4979 27.8616 23.7923C27.7973 24.2015 27.7613 25.2151 28.022 25.4265C28.339 25.6837 29.2128 25.7642 29.2128 25.7642H29.2129ZM29.7607 24.572C29.7607 24.572 29.1101 24.6163 28.7919 24.3542C28.7817 24.1451 28.7284 23.9444 28.8655 23.7841C29.0879 23.5238 29.5336 23.3705 29.7079 23.841C29.772 24.0147 29.7765 24.2477 29.7606 24.572H29.7607Z" fill="#DB2929"/>
<path fill-rule="evenodd" clip-rule="evenodd" d="M70.4884 45.4332L67.7135 47.7536C67.7135 47.7536 70.1298 53.6201 68.9523 59.4477C67.9969 64.1757 67.0237 68.5558 64.7383 72.7766C64.7383 72.7766 66.6594 71.5987 67.0932 71.1028C67.527 70.6069 74.4055 53.6201 70.4883 45.4333L70.4884 45.4332Z" fill="black"/>
<path fill-rule="evenodd" clip-rule="evenodd" d="M40.4956 70.9586C39.6041 68.1615 38.8547 65.2369 38.0855 62.2356C37.1544 58.6027 37.1544 57.3449 36.4094 58.23C35.6646 59.1149 34.9432 60.4262 35.176 61.4508C35.4088 62.4754 37.5384 68.6922 38.5628 70.462C39.5871 72.2319 39.4248 73.526 39.2824 73.994C39.1399 74.462 39.2726 75.2964 38.642 75.4796C38.0115 75.6626 37.6876 75.1964 37.7063 74.7877C37.7234 74.4167 37.4623 72.5695 35.9571 72.9156C34.4517 73.2616 33.3126 73.465 32.438 72.0609C31.5633 70.6568 30.7517 62.2486 30.5159 59.2292C30.28 56.2098 30.2799 52.813 29.7611 53.3792C29.2425 53.9452 27.4976 55.4549 27.4976 55.4549C27.4976 55.4549 27.7472 57.9692 27.1675 58.8047C26.4846 59.4321 23.065 65.2371 23.1118 66.1174C22.9298 66.6104 23.1088 68.435 23.8934 68.4947C24.4771 68.7049 28.0966 66.7659 28.4468 66.509C28.7972 66.2521 28.9372 66.1819 28.9372 66.1819C28.9372 66.1819 30.2215 73.7273 32.2298 74.2413C34.2378 74.7551 35.709 74.0778 36.1994 74.8019C36.6897 75.526 37.3669 76.5538 38.4644 76.4137C39.5619 76.2736 39.8654 75.6193 40.0756 74.9653C40.3473 74.1194 40.7793 72.9436 40.4959 70.9586H40.4956ZM27.8686 60.6396C27.8686 60.6396 28.4982 63.6953 28.2647 63.825C28.0313 63.9548 26.6997 65.1236 25.8796 64.932C25.0594 64.7404 27.0946 61.4215 27.8686 60.6396Z" fill="#010101"/>
<path fill-rule="evenodd" clip-rule="evenodd" d="M42.0917 76.8933C42.0917 76.8933 42.1431 78.0266 42.0143 78.4645C41.7569 78.6706 37.5332 80.7369 37.2244 80.8399C37.0693 80.2358 37.0058 79.7206 37.0139 79.3562C37.7568 78.7037 40.7785 77.3055 42.0917 76.8933Z" fill="#F5BA16"/>
<path fill-rule="evenodd" clip-rule="evenodd" d="M32.8722 74.8709C32.8722 74.8709 33.5668 75.5269 33.8858 76.2405C33.6231 76.6723 33.304 77.1595 32.797 77.5351C32.2844 77.0841 31.9326 76.6722 31.7081 76.1465C32.1023 75.6019 32.6843 74.9646 32.8721 74.8708L32.8722 74.8709Z" fill="#4DC8C6"/>
<path fill-rule="evenodd" clip-rule="evenodd" d="M35.4964 75.2115C35.4964 75.2115 36.2164 75.9185 36.5355 76.6322C36.2727 77.064 35.9535 77.5766 35.4467 77.9522C34.934 77.5013 34.5822 77.0639 34.3577 76.5383C34.7519 75.9937 35.3085 75.3055 35.4963 75.2115H35.4964Z" fill="#4DC8C6"/>
<path fill-rule="evenodd" clip-rule="evenodd" d="M41.2462 47.5462C41.2462 47.5462 41.4715 49.4174 41.2462 50.3389C37.5916 52.3925 33.8372 56.7364 32.6721 58.4776C32.6721 58.4776 31.7151 56.5227 31.8746 55.8045C32.0341 55.0864 35.5036 50.5382 41.2462 47.5462Z" fill="#F5BA16"/>
<path fill-rule="evenodd" clip-rule="evenodd" d="M57.0305 41.6372C57.0305 41.6372 56.6117 43.4843 55.9672 44.3956C51.8833 45.0607 48.5659 46.8003 45.4023 48.144C45.4023 48.144 45.2256 45.696 45.5297 45.3184C46.0496 45.0678 50.0131 41.9586 57.0305 41.6372V41.6372Z" fill="#F5BA16"/>
<path fill-rule="evenodd" clip-rule="evenodd" d="M25.6728 54.6953C25.6728 54.6953 26.9734 55.736 27.1033 55.8011C27.2333 55.8661 26.5182 57.8827 26.4097 57.926C26.3013 57.9693 24.8494 56.9503 24.8709 56.7552C24.8925 56.56 25.4993 54.9122 25.6728 54.6954V54.6953Z" fill="#4DC8C6"/>
<path fill-rule="evenodd" clip-rule="evenodd" d="M23.3971 56.2346C23.3971 56.2346 24.8276 57.4706 24.8493 57.6223C24.871 57.774 24.2425 59.4219 24.1124 59.4435C23.9823 59.4652 22.4436 58.3161 22.4653 58.1427C22.487 57.9691 23.3972 56.2346 23.3972 56.2346H23.3971Z" fill="#4DC8C6"/>
<path fill-rule="evenodd" clip-rule="evenodd" d="M25.2451 52.9919C24.6779 53.7441 23.5932 54.3258 22.184 54.5978C22.184 54.5978 22.7284 55.7844 23.9053 55.1194C25.0795 54.4559 25.4679 53.7646 26.15 53.0079L26.6643 53.0398L27.1555 52.0783C27.1555 52.0783 26.5663 52.0402 26.4726 51.9455C26.6741 51.3285 26.9405 49.5385 25.9131 49.4111C24.7401 49.2657 24.0757 49.8749 23.9061 51.1236C23.8525 51.5183 23.8385 52.4932 24.0935 52.6914C24.4037 52.9322 25.2452 52.9918 25.2452 52.9918L25.2451 52.9919ZM25.7473 51.8346C25.7473 51.8346 25.1228 51.8904 24.8117 51.6449C24.7976 51.4442 24.7422 51.2523 24.8708 51.0953C25.0792 50.8406 25.5047 50.6843 25.6817 51.1329C25.747 51.2986 25.7559 51.5225 25.7471 51.8346H25.7473Z" fill="#DB2929"/>
<path fill-rule="evenodd" clip-rule="evenodd" d="M61.4195 46.0067C61.3774 46.2827 61.276 47.5363 61.2932 47.872C61.6422 47.8573 63.7219 47.4149 64.1954 46.3342C64.6303 45.3738 64.5555 44.7647 64.4642 44.0399C63.3772 40.8094 61.3065 42.5146 61.0147 43.6793C60.7753 44.501 60.8018 45.7337 61.0193 45.7842C61.0193 45.7842 61.4521 44.2444 62.1339 44.2302C62.5021 44.2226 63.1138 44.5718 63.1328 45.3273C63.0017 45.7186 62.488 45.8506 61.4194 46.0067H61.4195Z" fill="#DB2929"/>
<path fill-rule="evenodd" clip-rule="evenodd" d="M40.1938 31.4917C40.1938 31.4917 41.3617 32.7061 41.475 32.8849C41.3853 33.0543 40.3782 34.1941 40.2717 34.3466C40.1193 34.2382 39.131 33.1874 38.9997 32.9816C39.0559 32.7916 40.1939 31.4916 40.1939 31.4916L40.1938 31.4917Z" fill="#4DC8C6"/>
<path fill-rule="evenodd" clip-rule="evenodd" d="M30.1576 26.4595L31.2439 28.0223L30.0041 29.2898L28.96 27.8647L30.1576 26.4595Z" fill="#4DC8C6"/>
<path fill-rule="evenodd" clip-rule="evenodd" d="M40.0255 55.9608C38.9141 56.3398 37.9977 57.2822 37.8249 58.2391C38.762 61.9209 40.1673 70.5564 42.7989 75.7236C44.6736 79.4048 51.3426 79.6598 53.6888 77.2316C54.3659 76.5309 54.9637 75.9496 54.9637 75.9496C54.9637 75.9496 57.5418 75.9469 59.4331 75.2929C61.3245 74.6387 62.6088 73.5407 63.356 72.7932C64.1032 72.0457 64.5235 71.8822 65.6911 68.6584C66.8586 65.4346 67.6059 62.0007 67.816 59.8983C68.026 57.7959 68.4697 51.8156 66.0836 48.5969C66.0836 48.5969 63.4538 50.454 63.531 50.9182C63.6084 51.3825 66.5477 58.5787 65.3101 63.6084C64.0725 68.6381 63.0669 72.8938 59.4317 73.4355C55.7963 73.9772 56.9566 73.5129 56.9566 73.5129C56.9566 73.5129 60.0997 70.4774 58.3206 69.8584C56.5416 69.2394 48.7005 68.2906 47.3511 69.1413C46.0019 69.9919 45.1682 71.2377 45.6637 71.6559C46.2919 72.1861 48.9007 74.0735 50.9876 74.8939C52.2426 75.3873 53.5245 75.6454 53.5245 75.6454C53.5245 75.6454 49.8631 80.0397 45.2049 75.797C42.4658 73.3022 41.122 55.6494 40.0255 55.9609V55.9608ZM49.7162 71.3852C50.013 71.6412 54.6296 73.8948 55.2453 73.3774C55.861 72.86 56.255 72.5642 56.0581 72.3425C55.8611 72.1207 50.8868 71.3804 49.7162 71.385V71.3852Z" fill="black"/>
<path fill-rule="evenodd" clip-rule="evenodd" d="M47.6709 15.1696L45.2086 17.2814C46.0052 23.7194 46.1548 26.9696 44.3831 29.105C44.7299 28.9813 45.363 28.7543 45.6579 28.4432C48.1626 25.7994 48.0513 18.5954 47.6709 15.1696V15.1696Z" fill="black"/>
</g>
<defs>
<clipPath id="clip0">
<rect width="49.5056" height="67.68" fill="white" transform="translate(22.184 13.16)"/>
</clipPath>
</defs>
</svg>
