<svg width="254" height="109" viewBox="0 0 254 109" fill="none" xmlns="http://www.w3.org/2000/svg">
<g clip-path="url(#clip0)">
<path fill-rule="evenodd" clip-rule="evenodd" d="M51.0875 15.201L48.7918 18.9204C48.7918 18.9204 50.8971 22.4066 50.9149 23.0147C50.9326 23.6226 50.9326 23.6226 50.9326 23.6226C50.9326 23.6226 34.7274 27.8596 27.9986 34.1455C21.2698 40.4315 11.3978 56.4314 6.89939 53.321C2.40083 50.2106 5.6442 43.0036 5.89091 42.4312C6.13777 41.8589 6.23648 41.6689 6.37223 41.4721C6.13763 41.4986 3.1743 45.8269 3.00413 50.2938C2.8341 54.7609 5.46357 59.043 8.65172 58.4403C11.8399 57.8379 14.3054 55.6512 17.5322 50.366C21.1286 44.4753 28.6523 34.6329 39.5294 31.0623C50.4063 27.4918 51.1157 26.4564 51.1157 26.4564C51.1157 26.4564 54.118 22.9188 54.3916 21.9979C54.6652 21.0769 52.5361 16.7801 51.0877 15.201H51.0875Z" fill="#010101"/>
<path fill-rule="evenodd" clip-rule="evenodd" d="M23.4183 25.5471L19.7957 29.2285C19.7957 29.2285 20.7122 36.6041 17.5361 37.6117C14.3599 38.6194 13.3909 36.316 13.5906 32.8621C13.7902 29.4083 13.8637 28.4935 13.8637 28.4935L11.506 30.0851C11.506 30.0851 11.6682 32.2097 10.997 33.244C10.3259 34.2782 6.19076 40.1821 7.34214 41.8717C8.49339 43.5612 10.3716 42.6938 12.0286 41.1231C13.6857 39.5525 13.4061 39.6622 13.4061 39.6622C17.2909 42.7566 24.568 34.5916 23.4183 25.5472V25.5471ZM11.704 35.8516C11.7092 36.671 11.7541 37.951 12.6359 38.7653C11.9248 39.418 9.45588 40.4251 9.85679 39.1687C10.2577 37.9123 11.0989 36.6022 11.704 35.8516V35.8516Z" fill="#010101"/>
<path fill-rule="evenodd" clip-rule="evenodd" d="M19.5326 39.0515C19.5326 39.0515 20.9768 40.5121 21.1183 40.7289C21.0136 40.9386 19.8203 42.3607 19.695 42.5502C19.5077 42.421 18.2851 41.1566 18.1211 40.9075C18.1847 40.6733 19.5326 39.0516 19.5326 39.0516V39.0515Z" fill="#4DC8C6"/>
<path fill-rule="evenodd" clip-rule="evenodd" d="M7.79279 32.4609L9.10924 34.3774L7.60665 35.9321L6.34127 34.1841L7.79279 32.4609Z" fill="#4DC8C6"/>
<path fill-rule="evenodd" clip-rule="evenodd" d="M26.7185 19.2608C26.6899 20.1048 26.6018 21.1583 26.4651 22.104C22.4619 24.368 18.504 26.4461 14.4537 28.9332C14.4151 27.8226 14.4727 26.7949 14.6426 25.6917C18.544 23.352 22.5497 21.1622 26.7187 19.2608H26.7185Z" fill="#F5BA16"/>
<path fill-rule="evenodd" clip-rule="evenodd" d="M33.7718 17.4301C33.5358 18.5265 33.2158 19.6074 32.9798 20.7036C33.8292 20.3878 44.8626 17.1191 47.2919 17.0801C47.7256 16.1598 48.5084 14.1175 48.5441 14C43.3595 14.4745 39.2775 15.3429 33.7716 17.4299L33.7718 17.4301Z" fill="#F5BA16"/>
<path fill-rule="evenodd" clip-rule="evenodd" d="M8.51875 29.4572C7.78398 30.401 6.40158 31.1134 4.61854 31.4223C4.61854 31.4223 5.27291 32.9501 6.77385 32.1339C8.27135 31.3195 8.7791 30.4486 9.65857 29.5022L10.3059 29.5567L10.9504 28.3441C10.9504 28.3441 10.2089 28.2796 10.0932 28.1562C10.3636 27.3749 10.7472 25.0998 9.45577 24.9096C7.98154 24.6926 7.12795 25.4516 6.88096 27.0389C6.80304 27.5408 6.7594 28.7838 7.07536 29.0431C7.45962 29.3585 8.51862 29.4572 8.51862 29.4572H8.51875ZM9.18263 27.9951C9.18263 27.9951 8.39416 28.0495 8.00853 27.7281C7.99614 27.4717 7.93157 27.2255 8.09774 27.0289C8.36717 26.7097 8.90741 26.5217 9.11861 27.0987C9.19639 27.3117 9.20176 27.5975 9.18249 27.9951H9.18263Z" fill="#DB2929"/>
<path fill-rule="evenodd" clip-rule="evenodd" d="M58.544 53.5785L55.1809 56.4241C55.1809 56.4241 58.1094 63.6185 56.6822 70.7652C55.5244 76.5635 54.3448 81.9351 51.575 87.1113C51.575 87.1113 53.9032 85.6668 54.429 85.0586C54.9548 84.4504 63.2915 63.6185 58.5439 53.5786L58.544 53.5785Z" fill="black"/>
<path fill-rule="evenodd" clip-rule="evenodd" d="M22.1933 84.8819C21.1128 81.4515 20.2046 77.8649 19.2723 74.1843C18.1438 69.729 18.1438 68.1865 17.2409 69.2719C16.3382 70.3572 15.464 71.9653 15.7461 73.2218C16.0282 74.4784 18.6093 82.1024 19.8509 84.2728C21.0923 86.4433 20.8955 88.0304 20.7229 88.6043C20.5503 89.1782 20.7111 90.2015 19.9468 90.4261C19.1826 90.6506 18.7901 90.0788 18.8128 89.5777C18.8334 89.1226 18.5171 86.8574 16.6927 87.2818C14.8682 87.7061 13.4876 87.9556 12.4277 86.2336C11.3676 84.5117 10.3839 74.2002 10.0981 70.4974C9.81224 66.7944 9.8121 62.6288 9.18333 63.3231C8.55471 64.0173 6.44001 65.8688 6.44001 65.8688C6.44001 65.8688 6.74248 68.9521 6.03992 69.9767C5.21222 70.7461 1.06776 77.8652 1.12449 78.9448C0.90393 79.5493 1.12077 81.787 2.0717 81.8601C2.77921 82.118 7.16597 79.7401 7.59043 79.425C8.01502 79.1099 8.18477 79.0239 8.18477 79.0239C8.18477 79.0239 9.74133 88.2772 12.1753 88.9076C14.609 89.5377 16.392 88.7071 16.9864 89.5951C17.5806 90.4831 18.4014 91.7435 19.7315 91.5717C21.0617 91.3999 21.4296 90.5975 21.6843 89.7955C22.0136 88.7581 22.5372 87.3162 22.1937 84.8819H22.1933ZM6.88966 72.227C6.88966 72.227 7.65266 75.9744 7.36973 76.1335C7.08681 76.2926 5.47297 77.726 4.47896 77.491C3.48494 77.2561 5.95154 73.1859 6.88966 72.227Z" fill="#010101"/>
<path fill-rule="evenodd" clip-rule="evenodd" d="M24.1278 92.16C24.1278 92.16 24.1901 93.5497 24.034 94.0868C23.722 94.3395 18.603 96.8736 18.2286 96.9999C18.0407 96.259 17.9638 95.6273 17.9735 95.1803C18.8739 94.3802 22.5362 92.6655 24.1278 92.16Z" fill="#F5BA16"/>
<path fill-rule="evenodd" clip-rule="evenodd" d="M12.9539 89.6796C12.9539 89.6796 13.7956 90.4842 14.1824 91.3593C13.8639 91.8889 13.4772 92.4863 12.8627 92.9469C12.2414 92.3938 11.815 91.8887 11.543 91.244C12.0207 90.5762 12.7262 89.7946 12.9537 89.6795L12.9539 89.6796Z" fill="#4DC8C6"/>
<path fill-rule="evenodd" clip-rule="evenodd" d="M16.1343 90.0975C16.1343 90.0975 17.0069 90.9645 17.3937 91.8397C17.0752 92.3693 16.6883 92.998 16.074 93.4586C15.4527 92.9056 15.0263 92.3691 14.7543 91.7246C15.232 91.0567 15.9066 90.2127 16.1342 90.0975H16.1343Z" fill="#4DC8C6"/>
<path fill-rule="evenodd" clip-rule="evenodd" d="M23.1031 56.1697C23.1031 56.1697 23.3761 58.4645 23.1031 59.5947C18.6737 62.1131 14.1234 67.4403 12.7114 69.5756C12.7114 69.5756 11.5515 67.1783 11.7448 66.2975C11.9381 65.4168 16.1431 59.8391 23.1031 56.1697Z" fill="#F5BA16"/>
<path fill-rule="evenodd" clip-rule="evenodd" d="M42.2333 48.9232C42.2333 48.9232 41.7257 51.1885 40.9445 52.306C35.9949 53.1216 31.9743 55.255 28.1401 56.9029C28.1401 56.9029 27.9259 53.9008 28.2945 53.4377C28.9246 53.1304 33.7283 49.3173 42.2333 48.9232V48.9232Z" fill="#F5BA16"/>
<path fill-rule="evenodd" clip-rule="evenodd" d="M4.22842 64.9372C4.22842 64.9372 5.80467 66.2135 5.96217 66.2934C6.11967 66.3731 5.253 68.8461 5.12152 68.8992C4.99018 68.9523 3.23041 67.7026 3.25656 67.4633C3.28272 67.224 4.01819 65.2032 4.22842 64.9373V64.9372Z" fill="#4DC8C6"/>
<path fill-rule="evenodd" clip-rule="evenodd" d="M1.47018 66.825C1.47018 66.825 3.20393 68.3407 3.23022 68.5267C3.25652 68.7128 2.49476 70.7337 2.33712 70.7602C2.17948 70.7868 0.314525 69.3776 0.340821 69.1649C0.367117 68.9521 1.47031 66.825 1.47031 66.825H1.47018Z" fill="#4DC8C6"/>
<path fill-rule="evenodd" clip-rule="evenodd" d="M3.70995 62.8482C3.02254 63.7706 1.70787 64.484 3.8147e-06 64.8175C3.8147e-06 64.8175 0.659746 66.2728 2.0862 65.4572C3.50936 64.6436 3.98007 63.7958 4.80668 62.8678L5.43007 62.907L6.02538 61.7278C6.02538 61.7278 5.31126 61.6811 5.19768 61.5649C5.44191 60.8083 5.76476 58.6131 4.51962 58.4569C3.09798 58.2785 2.29272 59.0256 2.08717 60.557C2.02219 61.041 2.00525 62.2366 2.31433 62.4797C2.69019 62.775 3.71009 62.848 3.71009 62.848L3.70995 62.8482ZM4.31862 61.4289C4.31862 61.4289 3.56181 61.4973 3.18472 61.1963C3.16765 60.9501 3.10046 60.7147 3.25631 60.5223C3.50895 60.21 4.02468 60.0182 4.23918 60.5684C4.31834 60.7716 4.32908 61.0462 4.31848 61.4289H4.31862Z" fill="#DB2929"/>
<path fill-rule="evenodd" clip-rule="evenodd" d="M47.5526 54.2818C47.5016 54.6203 47.3787 56.1576 47.3995 56.5693C47.8225 56.5513 50.343 56.0088 50.917 54.6834C51.444 53.5056 51.3534 52.7586 51.2428 51.8697C49.9253 47.908 47.4156 49.9992 47.062 51.4275C46.7719 52.4353 46.804 53.947 47.0676 54.0089C47.0676 54.0089 47.5921 52.1206 48.4185 52.1032C48.8647 52.0938 49.6061 52.5221 49.6291 53.4486C49.4702 53.9285 48.8476 54.0904 47.5525 54.2818H47.5526Z" fill="#DB2929"/>
<path fill-rule="evenodd" clip-rule="evenodd" d="M21.8276 36.4812C21.8276 36.4812 23.243 37.9705 23.3804 38.1898C23.2717 38.3975 22.051 39.7953 21.922 39.9824C21.7373 39.8494 20.5395 38.5608 20.3803 38.3084C20.4485 38.0754 21.8277 36.4811 21.8277 36.4811L21.8276 36.4812Z" fill="#4DC8C6"/>
<path fill-rule="evenodd" clip-rule="evenodd" d="M9.66364 30.31L10.9802 32.2266L9.47764 33.781L8.21226 32.0333L9.66364 30.31Z" fill="#4DC8C6"/>
<path fill-rule="evenodd" clip-rule="evenodd" d="M21.6236 66.4891C20.2765 66.9539 19.1659 68.1096 18.9564 69.2831C20.0922 73.7984 21.7954 84.3885 24.9848 90.7254C27.257 95.2398 35.3397 95.5526 38.1832 92.5747C39.0039 91.7154 39.7283 91.0026 39.7283 91.0026C39.7283 91.0026 42.853 90.9992 45.1452 90.1972C47.4375 89.395 48.9941 88.0484 49.8997 87.1317C50.8053 86.2149 51.3147 86.0145 52.7297 82.061C54.1448 78.1074 55.0505 73.8962 55.3051 71.318C55.5597 68.7396 56.0974 61.4056 53.2056 57.4583C53.2056 57.4583 50.0182 59.7358 50.1118 60.3051C50.2056 60.8744 53.768 69.6996 52.268 75.8678C50.7681 82.036 49.5493 87.255 45.1435 87.9194C40.7375 88.5837 42.1437 88.0143 42.1437 88.0143C42.1437 88.0143 45.9531 84.2917 43.7969 83.5325C41.6408 82.7734 32.1375 81.6099 30.502 82.6531C28.8668 83.6963 27.8564 85.224 28.457 85.7369C29.2183 86.3872 32.3802 88.7018 34.9094 89.7078C36.4305 90.313 37.9841 90.6295 37.9841 90.6295C37.9841 90.6295 33.5466 96.0185 27.9009 90.8154C24.5811 87.7559 22.9524 66.1072 21.6236 66.4892V66.4891ZM33.3685 85.4049C33.7282 85.7189 39.3234 88.4827 40.0696 87.8481C40.8158 87.2136 41.2934 86.8508 41.0547 86.5789C40.816 86.3069 34.7873 85.3991 33.3685 85.4048V85.4049Z" fill="black"/>
<path fill-rule="evenodd" clip-rule="evenodd" d="M30.8897 16.4644L27.9054 19.0543C28.8709 26.9496 29.0522 30.9355 26.9049 33.5543C27.3252 33.4025 28.0925 33.1242 28.4499 32.7426C31.4857 29.5004 31.3507 20.6657 30.8897 16.4644V16.4644Z" fill="black"/>
</g>
<path d="M76 14H83V97H76V14Z" fill="#F5BA16"/>
<path d="M96.552 47V13.4H107.4C110.024 13.4 112.168 13.832 113.832 14.696C115.496 15.56 116.728 16.744 117.528 18.248C118.328 19.752 118.728 21.416 118.728 23.24C118.728 25.352 118.152 27.256 117 28.952C115.88 30.648 114.12 31.848 111.72 32.552L119.064 47H114.312L107.496 33.128H107.208H100.584V47H96.552ZM100.584 29.96H107.112C109.704 29.96 111.592 29.336 112.776 28.088C113.96 26.84 114.552 25.24 114.552 23.288C114.552 21.304 113.96 19.736 112.776 18.584C111.624 17.4 109.72 16.808 107.064 16.808H100.584V29.96ZM134.16 47.576C131.92 47.576 129.904 47.064 128.112 46.04C126.32 45.016 124.896 43.576 123.84 41.72C122.816 39.832 122.304 37.624 122.304 35.096C122.304 32.568 122.832 30.376 123.888 28.52C124.944 26.632 126.368 25.176 128.16 24.152C129.984 23.128 132.016 22.616 134.256 22.616C136.496 22.616 138.512 23.128 140.304 24.152C142.096 25.176 143.504 26.632 144.528 28.52C145.584 30.376 146.112 32.568 146.112 35.096C146.112 37.624 145.584 39.832 144.528 41.72C143.472 43.576 142.032 45.016 140.208 46.04C138.416 47.064 136.4 47.576 134.16 47.576ZM134.16 44.12C135.536 44.12 136.816 43.784 138 43.112C139.184 42.44 140.144 41.432 140.88 40.088C141.616 38.744 141.984 37.08 141.984 35.096C141.984 33.112 141.616 31.448 140.88 30.104C140.176 28.76 139.232 27.752 138.048 27.08C136.864 26.408 135.6 26.072 134.256 26.072C132.88 26.072 131.6 26.408 130.416 27.08C129.232 27.752 128.272 28.76 127.536 30.104C126.8 31.448 126.432 33.112 126.432 35.096C126.432 37.08 126.8 38.744 127.536 40.088C128.272 41.432 129.216 42.44 130.368 43.112C131.552 43.784 132.816 44.12 134.16 44.12ZM152.388 57.56L158.292 44.696H156.9L147.444 23.192H151.812L159.684 41.72L168.036 23.192H172.212L156.612 57.56H152.388ZM182.888 47.576C180.904 47.576 179.256 47.24 177.944 46.568C176.632 45.896 175.656 45 175.016 43.88C174.376 42.76 174.056 41.544 174.056 40.232C174.056 37.8 174.984 35.928 176.84 34.616C178.696 33.304 181.224 32.648 184.424 32.648H190.856V32.36C190.856 30.28 190.312 28.712 189.224 27.656C188.136 26.568 186.68 26.024 184.856 26.024C183.288 26.024 181.928 26.424 180.776 27.224C179.656 27.992 178.952 29.128 178.664 30.632H174.536C174.696 28.904 175.272 27.448 176.264 26.264C177.288 25.08 178.552 24.184 180.056 23.576C181.56 22.936 183.16 22.616 184.856 22.616C188.184 22.616 190.68 23.512 192.344 25.304C194.04 27.064 194.888 29.416 194.888 32.36V47H191.288L191.048 42.728C190.376 44.072 189.384 45.224 188.072 46.184C186.792 47.112 185.064 47.576 182.888 47.576ZM183.512 44.168C185.048 44.168 186.36 43.768 187.448 42.968C188.568 42.168 189.416 41.128 189.992 39.848C190.568 38.568 190.856 37.224 190.856 35.816V35.768H184.76C182.392 35.768 180.712 36.184 179.72 37.016C178.76 37.816 178.28 38.824 178.28 40.04C178.28 41.288 178.728 42.296 179.624 43.064C180.552 43.8 181.848 44.168 183.512 44.168ZM209.689 47C207.513 47 205.801 46.472 204.553 45.416C203.305 44.36 202.681 42.456 202.681 39.704V26.6H198.553V23.192H202.681L203.209 17.48H206.713V23.192H213.721V26.6H206.713V39.704C206.713 41.208 207.017 42.232 207.625 42.776C208.233 43.288 209.305 43.544 210.841 43.544H213.337V47H209.689ZM227.531 47.576C224.715 47.576 222.475 46.728 220.811 45.032C219.147 43.304 218.315 40.664 218.315 37.112V23.192H222.347V36.68C222.347 41.64 224.379 44.12 228.443 44.12C230.523 44.12 232.235 43.384 233.579 41.912C234.955 40.408 235.643 38.28 235.643 35.528V23.192H239.675V47H236.027L235.739 42.728C235.003 44.232 233.899 45.416 232.427 46.28C230.987 47.144 229.355 47.576 227.531 47.576ZM246.312 47V12.44H250.344V47H246.312Z" fill="black"/>
<path d="M94.44 94L106.824 60.4H111.096L123.432 94H119.16L116.088 85.36H101.784L98.664 94H94.44ZM102.984 82.096H114.888L108.936 65.488L102.984 82.096ZM128.187 94V59.44H132.219V94H128.187ZM141.276 64.912C140.476 64.912 139.804 64.656 139.26 64.144C138.748 63.6 138.492 62.928 138.492 62.128C138.492 61.36 138.748 60.72 139.26 60.208C139.804 59.696 140.476 59.44 141.276 59.44C142.044 59.44 142.7 59.696 143.244 60.208C143.788 60.72 144.06 61.36 144.06 62.128C144.06 62.928 143.788 63.6 143.244 64.144C142.7 64.656 142.044 64.912 141.276 64.912ZM139.26 94V70.192H143.292V94H139.26ZM152.904 104.56L158.808 91.696H157.416L147.96 70.192H152.328L160.2 88.72L168.552 70.192H172.728L157.128 104.56H152.904ZM183.404 94.576C181.42 94.576 179.772 94.24 178.46 93.568C177.148 92.896 176.172 92 175.532 90.88C174.892 89.76 174.572 88.544 174.572 87.232C174.572 84.8 175.5 82.928 177.356 81.616C179.212 80.304 181.74 79.648 184.94 79.648H191.372V79.36C191.372 77.28 190.828 75.712 189.74 74.656C188.652 73.568 187.196 73.024 185.372 73.024C183.804 73.024 182.444 73.424 181.292 74.224C180.172 74.992 179.468 76.128 179.18 77.632H175.052C175.212 75.904 175.788 74.448 176.78 73.264C177.804 72.08 179.068 71.184 180.572 70.576C182.076 69.936 183.676 69.616 185.372 69.616C188.7 69.616 191.196 70.512 192.86 72.304C194.556 74.064 195.404 76.416 195.404 79.36V94H191.804L191.564 89.728C190.892 91.072 189.9 92.224 188.588 93.184C187.308 94.112 185.58 94.576 183.404 94.576ZM184.028 91.168C185.564 91.168 186.876 90.768 187.964 89.968C189.084 89.168 189.932 88.128 190.508 86.848C191.084 85.568 191.372 84.224 191.372 82.816V82.768H185.276C182.908 82.768 181.228 83.184 180.236 84.016C179.276 84.816 178.796 85.824 178.796 87.04C178.796 88.288 179.244 89.296 180.14 90.064C181.068 90.8 182.364 91.168 184.028 91.168ZM201.453 94V59.44H205.485V74.272C206.285 72.8 207.421 71.664 208.893 70.864C210.365 70.032 211.965 69.616 213.693 69.616C216.445 69.616 218.653 70.48 220.317 72.208C221.981 73.904 222.813 76.528 222.813 80.08V94H218.829V80.512C218.829 75.552 216.829 73.072 212.829 73.072C210.749 73.072 209.005 73.824 207.597 75.328C206.189 76.8 205.485 78.912 205.485 81.664V94H201.453Z" fill="black"/>
<defs>
<clipPath id="clip0">
<rect width="60" height="83" fill="white" transform="translate(0 14)"/>
</clipPath>
</defs>
</svg>
